<svg width="327" height="56" viewBox="0 0 327 56" fill="none" xmlns="http://www.w3.org/2000/svg">
<rect x="1" y="1" width="325" height="54" rx="19" fill="white"/>
<path d="M94.6712 26.3679H94V26.3333H86.5V29.6666H91.2096C90.5225 31.607 88.6762 33 86.5 33C83.7387 33 81.5 30.7612 81.5 28C81.5 25.2387 83.7387 23 86.5 23C87.7746 23 88.9342 23.4808 89.8171 24.2662L92.1742 21.9091C90.6858 20.522 88.695 19.6666 86.5 19.6666C81.8979 19.6666 78.1667 23.3979 78.1667 28C78.1667 32.602 81.8979 36.3333 86.5 36.3333C91.1021 36.3333 94.8333 32.602 94.8333 28C94.8333 27.4412 94.7758 26.8958 94.6712 26.3679Z" fill="#FFC107"/>
<path d="M79.1275 24.1212L81.8654 26.1291C82.6063 24.295 84.4004 23 86.5 23C87.7746 23 88.9342 23.4808 89.8171 24.2662L92.1742 21.9091C90.6858 20.522 88.695 19.6666 86.5 19.6666C83.2992 19.6666 80.5233 21.4737 79.1275 24.1212Z" fill="#FF3D00"/>
<path d="M86.5 36.3334C88.6525 36.3334 90.6083 35.5096 92.0871 34.17L89.5079 31.9875C88.6431 32.6452 87.5864 33.0009 86.5 33C84.3325 33 82.4921 31.618 81.7988 29.6892L79.0813 31.783C80.4604 34.4817 83.2613 36.3334 86.5 36.3334Z" fill="#4CAF50"/>
<path d="M94.6713 26.368H94V26.3334H86.5V29.6667H91.2096C90.8809 30.5902 90.2889 31.3972 89.5067 31.988L89.5079 31.9871L92.0871 34.1696C91.9046 34.3355 94.8333 32.1667 94.8333 28C94.8333 27.4413 94.7758 26.8959 94.6713 26.368Z" fill="#1976D2"/>
<path d="M114.351 33C114.244 33 114.153 32.9627 114.079 32.888C114.004 32.8133 113.967 32.7227 113.967 32.616V22.184C113.967 22.0667 114.004 21.976 114.079 21.912C114.153 21.8373 114.244 21.8 114.351 21.8H115.855C115.972 21.8 116.063 21.8373 116.127 21.912C116.201 21.976 116.239 22.0667 116.239 22.184V31.08H121.311C121.428 31.08 121.524 31.1173 121.599 31.192C121.673 31.2667 121.711 31.3573 121.711 31.464V32.616C121.711 32.7227 121.673 32.8133 121.599 32.888C121.524 32.9627 121.428 33 121.311 33H114.351ZM126.643 33.16C125.384 33.16 124.413 32.84 123.731 32.2C123.048 31.56 122.68 30.6747 122.627 29.544L122.611 28.84L122.627 28.136C122.68 27.016 123.053 26.136 123.747 25.496C124.44 24.8453 125.405 24.52 126.643 24.52C127.869 24.52 128.829 24.8453 129.523 25.496C130.216 26.136 130.589 27.016 130.643 28.136C130.653 28.264 130.659 28.4987 130.659 28.84C130.659 29.1813 130.653 29.416 130.643 29.544C130.589 30.6747 130.221 31.56 129.539 32.2C128.856 32.84 127.891 33.16 126.643 33.16ZM126.643 31.544C127.208 31.544 127.64 31.368 127.939 31.016C128.248 30.664 128.413 30.1467 128.435 29.464C128.445 29.3573 128.451 29.1493 128.451 28.84C128.451 28.5307 128.445 28.3227 128.435 28.216C128.413 27.5333 128.248 27.016 127.939 26.664C127.629 26.3013 127.197 26.12 126.643 26.12C126.077 26.12 125.64 26.3013 125.331 26.664C125.021 27.016 124.856 27.5333 124.835 28.216L124.819 28.84L124.835 29.464C124.856 30.1467 125.021 30.664 125.331 31.016C125.64 31.368 126.077 31.544 126.643 31.544ZM136.191 36.52C135.242 36.52 134.474 36.36 133.887 36.04C133.3 35.7307 132.884 35.3733 132.639 34.968C132.394 34.5627 132.271 34.216 132.271 33.928C132.271 33.8213 132.308 33.7307 132.383 33.656C132.458 33.592 132.548 33.56 132.655 33.56H134.079C134.175 33.56 134.255 33.5813 134.319 33.624C134.394 33.6773 134.452 33.768 134.495 33.896C134.612 34.1733 134.788 34.408 135.023 34.6C135.258 34.8027 135.62 34.904 136.111 34.904C136.751 34.904 137.22 34.76 137.519 34.472C137.818 34.1947 137.967 33.704 137.967 33V31.912C137.391 32.5947 136.575 32.936 135.519 32.936C134.41 32.936 133.572 32.6 133.007 31.928C132.452 31.256 132.154 30.3387 132.111 29.176L132.095 28.744L132.111 28.312C132.154 27.1707 132.458 26.2533 133.023 25.56C133.588 24.8667 134.42 24.52 135.519 24.52C136.084 24.52 136.58 24.6267 137.007 24.84C137.434 25.0533 137.786 25.3413 138.063 25.704V25.08C138.063 24.9627 138.1 24.8667 138.175 24.792C138.26 24.7173 138.356 24.68 138.463 24.68H139.775C139.882 24.68 139.972 24.7173 140.047 24.792C140.122 24.8667 140.159 24.9627 140.159 25.08L140.175 32.792C140.175 33.976 139.844 34.8933 139.183 35.544C138.522 36.1947 137.524 36.52 136.191 36.52ZM136.127 31.24C136.724 31.24 137.172 31.048 137.471 30.664C137.77 30.28 137.935 29.8107 137.967 29.256C137.978 29.1707 137.983 29 137.983 28.744C137.983 28.488 137.978 28.3173 137.967 28.232C137.935 27.6773 137.77 27.208 137.471 26.824C137.172 26.44 136.724 26.248 136.127 26.248C134.975 26.248 134.367 26.952 134.303 28.36L134.287 28.744C134.287 30.408 134.9 31.24 136.127 31.24ZM142.61 23.32C142.504 23.32 142.413 23.2827 142.338 23.208C142.264 23.1333 142.226 23.0427 142.226 22.936V21.768C142.226 21.6507 142.264 21.5547 142.338 21.48C142.413 21.4053 142.504 21.368 142.61 21.368H144.082C144.2 21.368 144.296 21.4053 144.37 21.48C144.445 21.5547 144.482 21.6507 144.482 21.768V22.936C144.482 23.0427 144.44 23.1333 144.354 23.208C144.28 23.2827 144.189 23.32 144.082 23.32H142.61ZM142.674 33C142.568 33 142.477 32.9627 142.402 32.888C142.328 32.8133 142.29 32.7227 142.29 32.616V25.064C142.29 24.9467 142.328 24.856 142.402 24.792C142.477 24.7173 142.568 24.68 142.674 24.68H144.034C144.141 24.68 144.232 24.7173 144.306 24.792C144.381 24.8667 144.418 24.9573 144.418 25.064V32.616C144.418 32.7227 144.381 32.8133 144.306 32.888C144.232 32.9627 144.141 33 144.034 33H142.674ZM146.909 33C146.802 33 146.711 32.9627 146.637 32.888C146.562 32.8133 146.525 32.7227 146.525 32.616V25.064C146.525 24.9467 146.562 24.856 146.637 24.792C146.711 24.7173 146.802 24.68 146.909 24.68H148.237C148.354 24.68 148.445 24.7173 148.509 24.792C148.583 24.856 148.621 24.9467 148.621 25.064V25.72C149.271 24.92 150.162 24.52 151.293 24.52C152.274 24.52 153.053 24.84 153.629 25.48C154.205 26.12 154.493 27 154.493 28.12V32.616C154.493 32.7227 154.455 32.8133 154.381 32.888C154.317 32.9627 154.226 33 154.109 33H152.669C152.562 33 152.471 32.9627 152.397 32.888C152.322 32.8133 152.285 32.7227 152.285 32.616V28.216C152.285 27.5973 152.13 27.1173 151.821 26.776C151.522 26.424 151.09 26.248 150.525 26.248C149.981 26.248 149.543 26.424 149.213 26.776C148.882 27.128 148.717 27.608 148.717 28.216V32.616C148.717 32.7227 148.679 32.8133 148.605 32.888C148.541 32.9627 148.45 33 148.333 33H146.909ZM162.078 33C161.811 33 161.635 32.8667 161.55 32.6L159.262 25.176C159.251 25.144 159.246 25.096 159.246 25.032C159.246 24.936 159.278 24.856 159.342 24.792C159.406 24.7173 159.486 24.68 159.582 24.68H160.798C160.905 24.68 160.995 24.712 161.07 24.776C161.155 24.84 161.209 24.9093 161.23 24.984L162.782 30.248L164.43 25.032C164.462 24.936 164.515 24.856 164.59 24.792C164.675 24.7173 164.782 24.68 164.91 24.68H165.726C165.854 24.68 165.955 24.7173 166.03 24.792C166.115 24.856 166.169 24.936 166.19 25.032L167.854 30.248L169.406 24.984C169.427 24.9093 169.475 24.84 169.55 24.776C169.625 24.712 169.721 24.68 169.838 24.68H171.038C171.134 24.68 171.214 24.7173 171.278 24.792C171.353 24.856 171.39 24.936 171.39 25.032L171.358 25.176L169.07 32.6C169.027 32.728 168.963 32.8293 168.878 32.904C168.803 32.968 168.697 33 168.558 33H167.502C167.225 33 167.049 32.8667 166.974 32.6L165.326 27.576L163.662 32.6C163.577 32.8667 163.395 33 163.118 33H162.078ZM173.267 23.32C173.16 23.32 173.069 23.2827 172.995 23.208C172.92 23.1333 172.883 23.0427 172.883 22.936V21.768C172.883 21.6507 172.92 21.5547 172.995 21.48C173.069 21.4053 173.16 21.368 173.267 21.368H174.739C174.856 21.368 174.952 21.4053 175.027 21.48C175.101 21.5547 175.139 21.6507 175.139 21.768V22.936C175.139 23.0427 175.096 23.1333 175.011 23.208C174.936 23.2827 174.845 23.32 174.739 23.32H173.267ZM173.331 33C173.224 33 173.133 32.9627 173.059 32.888C172.984 32.8133 172.947 32.7227 172.947 32.616V25.064C172.947 24.9467 172.984 24.856 173.059 24.792C173.133 24.7173 173.224 24.68 173.331 24.68H174.691C174.797 24.68 174.888 24.7173 174.963 24.792C175.037 24.8667 175.075 24.9573 175.075 25.064V32.616C175.075 32.7227 175.037 32.8133 174.963 32.888C174.888 32.9627 174.797 33 174.691 33H173.331ZM180.957 33C179.986 33 179.256 32.7493 178.765 32.248C178.274 31.736 178.029 30.9893 178.029 30.008V26.392H176.765C176.658 26.392 176.568 26.3547 176.493 26.28C176.418 26.2053 176.381 26.1147 176.381 26.008V25.064C176.381 24.9573 176.418 24.8667 176.493 24.792C176.568 24.7173 176.658 24.68 176.765 24.68H178.029V22.024C178.029 21.9067 178.066 21.816 178.141 21.752C178.216 21.6773 178.306 21.64 178.413 21.64H179.741C179.858 21.64 179.949 21.6773 180.013 21.752C180.088 21.816 180.125 21.9067 180.125 22.024V24.68H182.125C182.232 24.68 182.322 24.7173 182.397 24.792C182.472 24.8667 182.509 24.9573 182.509 25.064V26.008C182.509 26.1147 182.472 26.2053 182.397 26.28C182.322 26.3547 182.232 26.392 182.125 26.392H180.125V29.832C180.125 30.2907 180.205 30.6373 180.365 30.872C180.525 31.1067 180.786 31.224 181.149 31.224H182.269C182.386 31.224 182.477 31.2613 182.541 31.336C182.616 31.4 182.653 31.4907 182.653 31.608V32.616C182.653 32.7227 182.616 32.8133 182.541 32.888C182.477 32.9627 182.386 33 182.269 33H180.957ZM184.472 33C184.365 33 184.274 32.9627 184.2 32.888C184.125 32.8133 184.088 32.7227 184.088 32.616V22.024C184.088 21.9067 184.125 21.816 184.2 21.752C184.274 21.6773 184.365 21.64 184.472 21.64H185.928C186.045 21.64 186.136 21.6773 186.2 21.752C186.274 21.816 186.312 21.9067 186.312 22.024V25.672C186.952 24.904 187.81 24.52 188.888 24.52C189.869 24.52 190.653 24.8453 191.24 25.496C191.826 26.136 192.12 27.0107 192.12 28.12V32.616C192.12 32.7227 192.082 32.8133 192.008 32.888C191.944 32.9627 191.853 33 191.736 33H190.28C190.162 33 190.066 32.9627 189.992 32.888C189.917 32.8133 189.88 32.7227 189.88 32.616V28.216C189.88 27.5973 189.725 27.1173 189.416 26.776C189.117 26.424 188.685 26.248 188.12 26.248C187.576 26.248 187.138 26.424 186.808 26.776C186.477 27.128 186.312 27.608 186.312 28.216V32.616C186.312 32.7227 186.274 32.8133 186.2 32.888C186.136 32.9627 186.045 33 185.928 33H184.472ZM202.35 33.16C200.878 33.16 199.732 32.7813 198.91 32.024C198.1 31.2667 197.668 30.2107 197.614 28.856C197.604 28.5467 197.598 28.0507 197.598 27.368C197.598 26.6853 197.604 26.1893 197.614 25.88C197.657 24.5573 198.094 23.5227 198.926 22.776C199.758 22.0187 200.9 21.64 202.35 21.64C203.332 21.64 204.174 21.8107 204.878 22.152C205.593 22.4827 206.132 22.8987 206.494 23.4C206.857 23.8907 207.049 24.376 207.07 24.856C207.07 24.952 207.038 25.032 206.974 25.096C206.91 25.16 206.825 25.192 206.718 25.192H205.038C204.932 25.192 204.852 25.1707 204.798 25.128C204.745 25.0853 204.697 25.016 204.654 24.92C204.505 24.5253 204.244 24.1893 203.87 23.912C203.497 23.6347 202.99 23.496 202.35 23.496C201.604 23.496 201.017 23.6987 200.59 24.104C200.174 24.4987 199.956 25.1173 199.934 25.96C199.924 26.2693 199.918 26.7387 199.918 27.368C199.918 27.9867 199.924 28.456 199.934 28.776C199.956 29.64 200.18 30.28 200.606 30.696C201.033 31.1013 201.62 31.304 202.366 31.304C203.124 31.304 203.732 31.1013 204.19 30.696C204.649 30.2907 204.878 29.6827 204.878 28.872V28.376H202.926C202.82 28.376 202.729 28.3387 202.654 28.264C202.58 28.1893 202.542 28.0987 202.542 27.992V27.112C202.542 27.0053 202.58 26.9147 202.654 26.84C202.729 26.7653 202.82 26.728 202.926 26.728H206.766C206.884 26.728 206.98 26.7653 207.054 26.84C207.129 26.9147 207.166 27.0053 207.166 27.112V28.808C207.166 29.6933 206.969 30.4667 206.574 31.128C206.18 31.7787 205.62 32.28 204.894 32.632C204.169 32.984 203.321 33.16 202.35 33.16ZM212.705 33.16C211.446 33.16 210.476 32.84 209.793 32.2C209.11 31.56 208.742 30.6747 208.689 29.544L208.673 28.84L208.689 28.136C208.742 27.016 209.116 26.136 209.809 25.496C210.502 24.8453 211.468 24.52 212.705 24.52C213.932 24.52 214.892 24.8453 215.585 25.496C216.278 26.136 216.652 27.016 216.705 28.136C216.716 28.264 216.721 28.4987 216.721 28.84C216.721 29.1813 216.716 29.416 216.705 29.544C216.652 30.6747 216.284 31.56 215.601 32.2C214.918 32.84 213.953 33.16 212.705 33.16ZM212.705 31.544C213.27 31.544 213.702 31.368 214.001 31.016C214.31 30.664 214.476 30.1467 214.497 29.464C214.508 29.3573 214.513 29.1493 214.513 28.84C214.513 28.5307 214.508 28.3227 214.497 28.216C214.476 27.5333 214.31 27.016 214.001 26.664C213.692 26.3013 213.26 26.12 212.705 26.12C212.14 26.12 211.702 26.3013 211.393 26.664C211.084 27.016 210.918 27.5333 210.897 28.216L210.881 28.84L210.897 29.464C210.918 30.1467 211.084 30.664 211.393 31.016C211.702 31.368 212.14 31.544 212.705 31.544ZM222.19 33.16C220.931 33.16 219.96 32.84 219.278 32.2C218.595 31.56 218.227 30.6747 218.174 29.544L218.158 28.84L218.174 28.136C218.227 27.016 218.6 26.136 219.294 25.496C219.987 24.8453 220.952 24.52 222.19 24.52C223.416 24.52 224.376 24.8453 225.07 25.496C225.763 26.136 226.136 27.016 226.19 28.136C226.2 28.264 226.206 28.4987 226.206 28.84C226.206 29.1813 226.2 29.416 226.19 29.544C226.136 30.6747 225.768 31.56 225.086 32.2C224.403 32.84 223.438 33.16 222.19 33.16ZM222.19 31.544C222.755 31.544 223.187 31.368 223.486 31.016C223.795 30.664 223.96 30.1467 223.982 29.464C223.992 29.3573 223.998 29.1493 223.998 28.84C223.998 28.5307 223.992 28.3227 223.982 28.216C223.96 27.5333 223.795 27.016 223.486 26.664C223.176 26.3013 222.744 26.12 222.19 26.12C221.624 26.12 221.187 26.3013 220.878 26.664C220.568 27.016 220.403 27.5333 220.382 28.216L220.366 28.84L220.382 29.464C220.403 30.1467 220.568 30.664 220.878 31.016C221.187 31.368 221.624 31.544 222.19 31.544ZM231.738 36.52C230.789 36.52 230.021 36.36 229.434 36.04C228.847 35.7307 228.431 35.3733 228.186 34.968C227.941 34.5627 227.818 34.216 227.818 33.928C227.818 33.8213 227.855 33.7307 227.93 33.656C228.005 33.592 228.095 33.56 228.202 33.56H229.626C229.722 33.56 229.802 33.5813 229.866 33.624C229.941 33.6773 229.999 33.768 230.042 33.896C230.159 34.1733 230.335 34.408 230.57 34.6C230.805 34.8027 231.167 34.904 231.658 34.904C232.298 34.904 232.767 34.76 233.066 34.472C233.365 34.1947 233.514 33.704 233.514 33V31.912C232.938 32.5947 232.122 32.936 231.066 32.936C229.957 32.936 229.119 32.6 228.554 31.928C227.999 31.256 227.701 30.3387 227.658 29.176L227.642 28.744L227.658 28.312C227.701 27.1707 228.005 26.2533 228.57 25.56C229.135 24.8667 229.967 24.52 231.066 24.52C231.631 24.52 232.127 24.6267 232.554 24.84C232.981 25.0533 233.333 25.3413 233.61 25.704V25.08C233.61 24.9627 233.647 24.8667 233.722 24.792C233.807 24.7173 233.903 24.68 234.01 24.68H235.322C235.429 24.68 235.519 24.7173 235.594 24.792C235.669 24.8667 235.706 24.9627 235.706 25.08L235.722 32.792C235.722 33.976 235.391 34.8933 234.73 35.544C234.069 36.1947 233.071 36.52 231.738 36.52ZM231.674 31.24C232.271 31.24 232.719 31.048 233.018 30.664C233.317 30.28 233.482 29.8107 233.514 29.256C233.525 29.1707 233.53 29 233.53 28.744C233.53 28.488 233.525 28.3173 233.514 28.232C233.482 27.6773 233.317 27.208 233.018 26.824C232.719 26.44 232.271 26.248 231.674 26.248C230.522 26.248 229.914 26.952 229.85 28.36L229.834 28.744C229.834 30.408 230.447 31.24 231.674 31.24ZM238.237 33C238.131 33 238.04 32.9627 237.965 32.888C237.891 32.8133 237.853 32.7227 237.853 32.616V22.024C237.853 21.9067 237.891 21.816 237.965 21.752C238.04 21.6773 238.131 21.64 238.237 21.64H239.581C239.699 21.64 239.789 21.6773 239.853 21.752C239.928 21.816 239.965 21.9067 239.965 22.024V32.616C239.965 32.7227 239.928 32.8133 239.853 32.888C239.789 32.9627 239.699 33 239.581 33H238.237ZM245.687 33.16C244.493 33.16 243.543 32.8187 242.839 32.136C242.146 31.4533 241.778 30.4827 241.735 29.224L241.719 28.824C241.719 27.4907 242.066 26.44 242.759 25.672C243.463 24.904 244.434 24.52 245.671 24.52C246.941 24.52 247.917 24.904 248.599 25.672C249.293 26.44 249.639 27.464 249.639 28.744V29.08C249.639 29.1867 249.602 29.2773 249.527 29.352C249.453 29.4267 249.357 29.464 249.239 29.464H243.927V29.592C243.949 30.1893 244.109 30.6853 244.407 31.08C244.717 31.464 245.138 31.656 245.671 31.656C246.279 31.656 246.775 31.4107 247.159 30.92C247.255 30.8027 247.33 30.7333 247.383 30.712C247.437 30.68 247.527 30.664 247.655 30.664H249.063C249.159 30.664 249.239 30.6907 249.303 30.744C249.378 30.7973 249.415 30.872 249.415 30.968C249.415 31.224 249.261 31.528 248.951 31.88C248.653 32.2213 248.221 32.52 247.655 32.776C247.09 33.032 246.434 33.16 245.687 33.16ZM247.431 28.104V28.072C247.431 27.4427 247.271 26.9413 246.951 26.568C246.642 26.184 246.215 25.992 245.671 25.992C245.127 25.992 244.701 26.184 244.391 26.568C244.082 26.9413 243.927 27.4427 243.927 28.072V28.104H247.431Z" fill="#0C092A"/>
<rect x="1" y="1" width="325" height="54" rx="19" stroke="#E6E6E6" stroke-width="2"/>
</svg>
